<svg xmlns="http://www.w3.org/2000/svg" width="150" height="33.94" viewBox="0 0 983.64 222.58">
		<path fill="#1C1C1C" d="M653.92,106.07c-7.68-4.25-19.32-6.32-35.58-6.32h-46.85c-24.71,0-24.71-3.95-24.71-11.11s2.23-9.1,6.33-10.57c5.68-2.03,15.16-2.42,30.66-2.42h76.23c1.76,0,3.19-1.43,3.19-3.19v-13.13c0-1.76-1.43-3.19-3.19-3.19h-83.99c-26.73,0-52.84,2.44-52.84,31.56,0,14.85,5.17,23.46,16.76,27.9,10.37,3.98,26.18,4.73,51.74,4.73h30.05c20.3,0,21.15,3.36,21.15,10.97,0,8.73-1.18,13.66-25.35,13.66h-87.51c-1.76,0-3.19,1.43-3.19,3.19v13.13c0,1.76,1.43,3.19,3.19,3.19h85.09c11.2,0,23.99-.32,33.87-4.17,11.45-4.45,17.51-13.41,17.51-25.91v-6.32c0-9.99-4.23-17.4-12.57-22.01h.01ZM971.07,106.07c-7.68-4.25-19.32-6.32-35.58-6.32h-46.85c-24.71,0-24.71-3.95-24.71-11.11s2.23-9.1,6.33-10.57c5.68-2.03,15.16-2.42,30.66-2.42h76.23c1.76,0,3.19-1.43,3.19-3.19v-13.13c0-1.76-1.43-3.19-3.19-3.19h-83.99c-26.73,0-52.84,2.44-52.84,31.56,0,14.85,5.17,23.46,16.76,27.9,10.37,3.98,26.18,4.73,51.74,4.73h30.05c20.3,0,21.15,3.36,21.15,10.97,0,8.73-1.18,13.66-25.35,13.66h-87.51c-1.76,0-3.19,1.43-3.19,3.19v13.13c0,1.76,1.43,3.19,3.19,3.19h85.09c11.2,0,23.99-.32,33.87-4.17,11.45-4.45,17.51-13.41,17.51-25.91v-6.32c0-9.99-4.23-17.4-12.57-22.01h.01ZM831.61,56.15h-24.99c-.75,0-1.48.27-2.06.77l-51.15,44-51.14-43.99c-.58-.5-1.31-.77-2.06-.77h-24.99c-1.36,0-2.53.84-3,2.14-.46,1.3-.09,2.72.95,3.61l67.96,58.19v41.15c0,1.8,1.43,3.26,3.19,3.26h18.19c1.76,0,3.19-1.46,3.19-3.26v-41.15l67.96-58.19c1.04-.89,1.41-2.31.95-3.61-.46-1.3-1.64-2.14-3-2.14h0ZM461.81,98.46h34.93c1.62,0,2.94,1.32,2.94,2.94v17.82c0,1.62-1.32,2.94-2.94,2.94h-34.93c-1.62,0-2.94-1.32-2.94-2.94v-17.82c0-1.62,1.32-2.94,2.94-2.94ZM389.3,56.15h-67.36c-32.28,0-46.05,12.21-46.05,40.84v26.65c0,28.63,13.77,40.84,46.06,40.84l44.19-.19v8.61c0,1.75,1.42,3.18,3.18,3.18h17.35c1.75,0,3.18-1.42,3.18-3.18v-8.74c1.66,0,4.4-.05,8.92-.11,11.87-.17,21.98-4.48,28.47-12.14,5.53-6.54,8.11-15.52,8.11-28.27v-26.65c0-28.63-13.77-40.84-46.05-40.84h0ZM386.69,133.34h-17.4c-1.74,0-3.16,1.42-3.16,3.16v8.05l-42.58.44c-13.86,0-23.09-2.78-23.09-16.36v-36.61c0-9.82,3.93-16.36,23.09-16.36h64.13c13.86,0,23.09,2.78,23.09,16.36v36.61c0,9.28-6.46,14.83-12.84,15.51-3.9.42-6.51.45-8.1.38v-8.03c0-1.74-1.41-3.15-3.15-3.15h.01Z"></path>
		<path fill="#0166FF" d="M137.95,125v-27.42c0-4.64-2.48-8.94-6.5-11.26l-23.75-13.71c-4.02-2.32-8.98-2.32-13,0l-23.75,13.71c-4.02,2.32-6.5,6.61-6.5,11.26v27.42c0,4.64,2.48,8.94,6.5,11.26l23.75,13.71c4.02,2.32,8.98,2.32,13,0l23.75-13.71c4.02-2.32,6.5-6.61,6.5-11.26ZM148.67,162.75l-39.96,23.07c-4.64,2.68-10.36,2.68-15,0l-53.3-30.77c-4.64-2.68-7.5-7.63-7.5-12.99v-61.54c0-5.36,2.86-10.31,7.5-12.99l53.3-30.77c4.64-2.68,10.36-2.68,15,0l53.3,30.77c4.64,2.68,7.5,7.63,7.5,12.99v45.88c0,3.22,1.72,6.19,4.5,7.8l22.4,12.93c2.67,1.54,6-.39,6-3.46v-70.01c0-12.86-6.86-24.75-18-31.18L119.2,4.82c-11.14-6.43-24.86-6.43-36,0L18,42.47C6.86,48.9,0,60.78,0,73.64v75.29c0,12.86,6.86,24.75,18,31.18l65.2,37.64c11.14,6.43,24.86,6.43,36,0l60.87-35.14c2.67-1.54,2.67-5.39,0-6.93l-22.41-12.93c-2.78-1.61-6.21-1.61-9,0h.01Z"></path>
	</svg>