<?xml version="1.0" encoding="UTF-8"?>
<svg xmlns="http://www.w3.org/2000/svg" version="1.1" xmlns:inkscape="http://www.inkscape.org/namespaces/inkscape" xmlns:sodipodi="http://sodipodi.sourceforge.net/DTD/sodipodi-0.dtd" xmlns:svg="http://www.w3.org/2000/svg" viewBox="0 0 33.25 36">
  <!-- Generator: Adobe Illustrator 29.7.0, SVG Export Plug-In . SVG Version: 2.1.1 Build 138)  -->
  <defs>
    <style>
      .st0 {
        fill: #fff;
      }
    </style>
  </defs>
  <g id="svg4" sodipodi:docname="q-sys-logo-white.svg">
    <sodipodi:namedview id="namedview4" bordercolor="#000000" borderopacity="0.25" inkscape:current-layer="svg4" inkscape:cx="83" inkscape:cy="17.957784" inkscape:deskcolor="#d1d1d1" inkscape:pagecheckerboard="0" inkscape:pageopacity="0.0" inkscape:showpageshadow="2" inkscape:window-height="1010" inkscape:window-maximized="1" inkscape:window-width="1920" inkscape:window-x="-6" inkscape:window-y="-6" inkscape:zoom="9.1325301" pagecolor="#ffffff"/>
    <path id="path1" class="st0" d="M28.22,21.56l5.03,2.82v-12.37c0-2.18-1.19-4.15-3.08-5.25L19.69.79c-1.91-1.06-4.23-1.06-6.15,0L3.07,6.76c-1.88,1.1-3.07,3.07-3.07,5.25v11.98c0,2.13,1.19,4.13,3.07,5.23l10.48,5.97c1.91,1.07,4.24,1.07,6.15,0l10.86-6.2-4.74-2.69-.67-.38-7.81,4.43c-.44.28-.98.28-1.45,0l-9.73-5.56c-.47-.23-.75-.69-.75-1.23v-11.12c0-.54.28-1,.75-1.28l9.73-5.53c.47-.26,1.01-.26,1.45,0l9.78,5.53c.47.28.73.74.73,1.28v8.87l.38.25h0s0,0,0,0Z"/>
    <path id="path2" class="st0" d="M22.68,15.81l-.04,4.48c-.03.69-.4,1.32-.99,1.68l-3.9,2.31c-.35.18-.74.28-1.13.28-.39,0-.78-.1-1.13-.28l-3.79-2.2c-.7-.37-1.13-1.1-1.13-1.89l.04-4.48c.04-.7.39-1.29.99-1.68l4-2.31c.31-.18.66-.28,1.02-.28.39,0,.78.11,1.13.28l3.79,2.2c.7.37,1.13,1.1,1.13,1.89Z"/>
  </g>
</svg>
